<svg width="25" height="25" viewBox="0 0 25 25" fill="none" xmlns="http://www.w3.org/2000/svg">
<path d="M13.746 0C10.293 0 7.49374 2.79822 7.49374 6.25C7.49374 6.94035 8.05359 7.5 8.74419 7.5C9.43479 7.5 9.99464 6.94035 9.99464 6.25C9.99464 4.17894 11.6741 2.5 13.746 2.5H18.7478C20.8196 2.5 22.4991 4.17894 22.4991 6.25V18.75C22.4991 20.8211 20.8196 22.5 18.7478 22.5H13.746C11.6741 22.5 9.99464 20.8211 9.99464 18.75C9.99464 18.0596 9.43479 17.5 8.74419 17.5C8.05359 17.5 7.49374 18.0596 7.49374 18.75C7.49374 22.2017 10.293 25 13.746 25H18.7478C22.2008 25 25 22.2017 25 18.75V6.25C25 2.79822 22.2008 0 18.7478 0H13.746Z" fill="#494751"/>
<path d="M1.25045 11.25C0.55985 11.25 0 11.8096 0 12.5C0 13.1904 0.55985 13.75 1.25045 13.75H11.6068C11.4955 13.8872 11.3888 14.0204 11.2879 14.1475C10.9809 14.5346 10.7211 14.8745 10.5375 15.1181C10.4457 15.2401 10.3727 15.3381 10.3224 15.4064L10.2642 15.4855L10.2485 15.5069L10.243 15.5144C10.2429 15.5145 10.2424 15.5152 11.254 16.25L10.243 15.5144C9.83711 16.0729 9.96033 16.8555 10.519 17.2612C11.0777 17.667 11.8596 17.5432 12.2656 16.9849L12.2691 16.98L12.2819 16.9625L12.3342 16.8915C12.3803 16.829 12.4486 16.7371 12.5354 16.6219C12.7092 16.3912 12.9561 16.0682 13.2475 15.7007C13.8368 14.9579 14.5831 14.0649 15.2643 13.3839L16.1485 12.5L15.2643 11.6161C14.5831 10.9351 13.8368 10.0421 13.2475 9.2992C12.9561 8.93176 12.7092 8.60876 12.5354 8.37811C12.4486 8.2629 12.3803 8.17101 12.3342 8.10847L12.2819 8.03751L12.2691 8.02001L12.2663 8.016C11.8602 7.45756 11.0777 7.33295 10.519 7.73871C9.96033 8.1445 9.83647 8.92621 10.2424 9.48471L11.254 8.74999C10.2424 9.48471 10.2423 9.48465 10.2424 9.48471L10.2443 9.4873L10.2485 9.49316L10.2642 9.51451L10.3224 9.59364C10.3727 9.66181 10.4457 9.75992 10.5375 9.88185C10.7211 10.1255 10.9809 10.4654 11.2879 10.8525C11.3888 10.9796 11.4955 11.1127 11.6068 11.25H1.25045Z" fill="#494751"/>
</svg>
