<svg width="25" height="25" viewBox="0 0 25 25" fill="none" xmlns="http://www.w3.org/2000/svg">
<g clip-path="url(#clip0_13_548)">
<path d="M12.5875 2.27273C13.2555 2.27105 13.7956 1.76093 13.7938 1.13334C13.792 0.505747 13.249 -0.00166257 12.581 4.09409e-06L12.5875 2.27273ZM6.54949 5.76364C6.54949 6.39123 7.09102 6.9 7.75903 6.9C8.42705 6.9 8.96852 6.39123 8.96852 5.76364H6.54949ZM6.54949 7.19697C6.54949 7.82456 7.09102 8.33334 7.75903 8.33334C8.42705 8.33334 8.96852 7.82456 8.96852 7.19697H6.54949ZM8.96852 5.76364C8.96852 5.13605 8.42705 4.62728 7.75903 4.62728C7.09102 4.62728 6.54949 5.13605 6.54949 5.76364H8.96852ZM7.61416 4.63546C6.95096 4.71062 6.47819 5.27667 6.5582 5.89975C6.6382 6.52282 7.2407 6.96699 7.9039 6.89182L7.61416 4.63546ZM9.3717 5.68182L9.35702 6.81819H9.3717V5.68182ZM15.6387 5.68182V6.81828L15.6536 6.81809L15.6387 5.68182ZM17.1066 6.89182C17.7698 6.96699 18.3723 6.52282 18.4523 5.89975C18.5323 5.27667 18.0596 4.71062 17.3964 4.63546L17.1066 6.89182ZM7.92437 6.88996C8.58647 6.80669 9.05142 6.2349 8.96272 5.61285C8.87402 4.99081 8.26549 4.55405 7.60337 4.63732L7.92437 6.88996ZM2.93377 11.7424L1.77095 11.4297C1.76719 11.442 1.76366 11.4544 1.76035 11.4668L2.93377 11.7424ZM1.32105 17.803L0.147634 17.5274C0.139812 17.5568 0.133264 17.5864 0.127975 17.6162L1.32105 17.803ZM23.6798 17.803L24.873 17.617C24.8677 17.5868 24.8611 17.557 24.8532 17.5274L23.6798 17.803ZM22.067 11.7424L23.2404 11.4668C23.2374 11.4549 23.2338 11.4429 23.2303 11.4309L22.067 11.7424ZM17.4034 4.63746C16.7413 4.55361 16.1324 4.98984 16.0432 5.61181C15.9539 6.23378 16.4182 6.80596 17.0802 6.88981L17.4034 4.63746ZM8.96852 11.1667C8.96852 10.5391 8.42705 10.0303 7.75903 10.0303C7.09102 10.0303 6.54949 10.5391 6.54949 11.1667H8.96852ZM6.54949 12.5C6.54949 13.1276 7.09102 13.6364 7.75903 13.6364C8.42705 13.6364 8.96852 13.1276 8.96852 12.5H6.54949ZM12.4262 4.09409e-06C11.7582 -0.00166257 11.2152 0.505747 11.2134 1.13334C11.2117 1.76093 11.7518 2.27105 12.4197 2.27273L12.4262 4.09409e-06ZM16.0387 5.76364C16.0387 6.39123 16.5802 6.9 17.2482 6.9C17.9162 6.9 18.4578 6.39123 18.4578 5.76364H16.0387ZM18.4578 5.76364C18.4578 5.13605 17.9162 4.62728 17.2482 4.62728C16.5802 4.62728 16.0387 5.13605 16.0387 5.76364H18.4578ZM16.0387 7.19697C16.0387 7.82456 16.5802 8.33334 17.2482 8.33334C17.9162 8.33334 18.4578 7.82456 18.4578 7.19697H16.0387ZM18.4578 11.1682C18.4578 10.5406 17.9162 10.0318 17.2482 10.0318C16.5802 10.0318 16.0387 10.5406 16.0387 11.1682H18.4578ZM16.0387 12.5C16.0387 13.1276 16.5802 13.6364 17.2482 13.6364C17.9162 13.6364 18.4578 13.1276 18.4578 12.5H16.0387ZM12.581 4.09409e-06C9.24736 0.00836773 6.54949 2.54975 6.54949 5.68182H8.96852C8.96852 3.80258 10.5872 2.27773 12.5875 2.27273L12.581 4.09409e-06ZM6.54949 5.68182V5.76364H8.96852V5.68182H6.54949ZM8.96852 7.19697V5.76364H6.54949V7.19697H8.96852ZM7.9039 6.89182C8.38602 6.83717 8.87143 6.81264 9.35702 6.81819L9.38654 4.54555C8.79418 4.53878 8.20217 4.56881 7.61416 4.63546L7.9039 6.89182ZM9.3717 6.81819L15.6387 6.81828V4.54546H9.3717V6.81819ZM15.6536 6.81809C16.1392 6.81255 16.6246 6.83717 17.1066 6.89182L17.3964 4.63546C16.8084 4.56881 16.2162 4.53878 15.6241 4.54555L15.6536 6.81809ZM7.60337 4.63732C6.15744 4.81919 4.97167 5.33064 3.99997 6.51766C3.10689 7.60861 2.4462 9.21379 1.77095 11.4297L4.09659 12.0552C4.76637 9.85743 5.32811 8.62322 5.91753 7.90318C6.42833 7.27922 6.9851 7.00809 7.92437 6.88996L7.60337 4.63732ZM1.76035 11.4668L0.147634 17.5274L2.49448 18.0786L4.1072 12.018L1.76035 11.4668ZM0.127975 17.6162C-0.33686 20.2365 0.493514 22.1871 2.14918 23.4267C3.71292 24.5973 5.83638 25 7.75419 25V22.7273C6.1192 22.7273 4.62288 22.3724 3.65669 21.6491C2.78238 20.9947 2.1726 19.915 2.51414 17.9899L0.127975 17.6162ZM7.75419 25H12.5842V22.7273H7.75419V25ZM12.5842 25H17.2466V22.7273H12.5842V25ZM17.2466 25C19.1624 25 21.2849 24.5971 22.8486 23.4267C24.504 22.1876 25.336 20.2374 24.873 17.617L22.4867 17.9891C22.8268 19.9141 22.2162 20.9942 21.3412 21.6491C20.3746 22.3726 18.8788 22.7273 17.2466 22.7273V25ZM24.8532 17.5274L23.2404 11.4668L20.8936 12.018L22.5063 18.0786L24.8532 17.5274ZM23.2303 11.4309C22.5579 9.215 21.8974 7.60993 21.0038 6.51867C20.0323 5.33215 18.8468 4.82028 17.4034 4.63746L17.0802 6.88981C18.0173 7.00852 18.5752 7.27997 19.0864 7.90444C19.6759 8.62417 20.2376 9.85773 20.9039 12.0539L23.2303 11.4309ZM6.54949 11.1667V12.5H8.96852V11.1667H6.54949ZM12.4197 2.27273C14.42 2.27773 16.0387 3.80258 16.0387 5.68182H18.4578C18.4578 2.54975 15.76 0.00836773 12.4262 4.09409e-06L12.4197 2.27273ZM16.0387 5.68182V5.76364H18.4578V5.68182H16.0387ZM16.0387 5.76364V7.19697H18.4578V5.76364H16.0387ZM16.0387 11.1682V12.5H18.4578V11.1682H16.0387Z" fill="#494751"/>
</g>
<defs>
<clipPath id="clip0_13_548">
<rect width="25" height="25" fill="white"/>
</clipPath>
</defs>
</svg>
